<svg id="Layer_1" data-name="Layer 1" xmlns="http://www.w3.org/2000/svg" xmlns:xlink="http://www.w3.org/1999/xlink" viewBox="0 0 80 80"><defs><style>.cls-1{fill:url(#linear-gradient);}.cls-2{fill:#fff;}</style><linearGradient id="linear-gradient" y1="40" x2="80" y2="40" gradientUnits="userSpaceOnUse"><stop offset="0" stop-color="#444d9c"/><stop offset="1" stop-color="#624696"/></linearGradient></defs><circle class="cls-1" cx="40" cy="40" r="40"/><path class="cls-2" d="M23.7,26c9.88,0,14.64,6.08,14.64,13.8S33.74,54,23.7,54h-12V26ZM19.54,47.34H23.7c5,0,6.8-3.76,6.8-7.6s-2-7.12-6.8-7.12H19.54Z"/><path class="cls-2" d="M62.7,34.3a9.26,9.26,0,0,0-6.4-2.44c-4.56,0-7.52,2.72-7.52,8.2,0,3.6,1.88,8,7.52,8a9.73,9.73,0,0,0,5.4-1.44v-3.6H54.62v-6.2H68.3V49.3c-1.76,3.56-6.64,5.48-12,5.48C45.18,54.78,41,47.38,41,40.06s4.8-14.84,15.32-14.84a14,14,0,0,1,11,4.52Z"/></svg>